<svg xmlns="http://www.w3.org/2000/svg" width="1920" height="320"><path d="M-26,388L-118,375L231,436Z" fill="#1f151d" stroke="#1f151d" stroke-width="1.51"/><path d="M324,430L231,436L572,430Z" fill="#322430" stroke="#322430" stroke-width="1.51"/><path d="M328,-118L563,-112L985,-117Z" fill="#553c50" stroke="#553c50" stroke-width="1.51"/><path d="M743,425L572,430L1248,432Z" fill="#713d66" stroke="#713d66" stroke-width="1.51"/><path d="M895,414L743,425L1248,432Z" fill="#753367" stroke="#753367" stroke-width="1.51"/><path d="M1027,-113L1239,-102L1310,-108Z" fill="#6e5669" stroke="#6e5669" stroke-width="1.51"/><path d="M985,-117L1027,-113L1310,-108Z" fill="#714b68" stroke="#714b68" stroke-width="1.51"/><path d="M1310,-108L1464,-101L1651,-105Z" fill="#493f47" stroke="#493f47" stroke-width="1.51"/><path d="M1454,411L1248,432L1676,422Z" fill="#51464f" stroke="#51464f" stroke-width="1.51"/><path d="M1676,422L1248,432L1731,428Z" fill="#3b3239" stroke="#3b3239" stroke-width="1.51"/><path d="M1310,-108L1651,-105L1824,-114Z" fill="#30272e" stroke="#30272e" stroke-width="1.51"/><path d="M985,-117L1310,-108L1824,-114Z" fill="#5d505a" stroke="#5d505a" stroke-width="1.51"/><path d="M1802,398L1731,428L1967,421Z" fill="#281c25" stroke="#281c25" stroke-width="1.51"/><path d="M1984,257L1971,265L2040,325Z" fill="#554a52" stroke="#554a52" stroke-width="1.51"/><path d="M1971,265L1952,306L2040,325Z" fill="#473d46" stroke="#473d46" stroke-width="1.51"/><path d="M1952,306L2008,414L2040,325Z" fill="#2b2129" stroke="#2b2129" stroke-width="1.51"/><path d="M2017,165L1984,257L2040,325Z" fill="#655461" stroke="#655461" stroke-width="1.51"/><path d="M1977,132L2017,165L2041,46Z" fill="#6e4364" stroke="#6e4364" stroke-width="1.51"/><path d="M1966,39L1977,132L2041,46Z" fill="#583e53" stroke="#583e53" stroke-width="1.51"/><path d="M2034,-35L1966,39L2041,46Z" fill="#362833" stroke="#362833" stroke-width="1.51"/><path d="M2017,165L2040,325L2041,46Z" fill="#713e65" stroke="#713e65" stroke-width="1.51"/><path d="M1824,-114L1889,-80L1992,-105Z" fill="#1d141b" stroke="#1d141b" stroke-width="1.51"/><path d="M1952,306L1967,421L2008,414Z" fill="#271c24" stroke="#271c24" stroke-width="1.51"/><path d="M1943,188L1984,257L2017,165Z" fill="#75526e" stroke="#75526e" stroke-width="1.51"/><path d="M1913,-18L1966,39L2034,-35Z" fill="#2f212c" stroke="#2f212c" stroke-width="1.51"/><path d="M1992,-105L1921,-77L2034,-35Z" fill="#180f16" stroke="#180f16" stroke-width="1.51"/><path d="M1921,-77L1913,-18L2034,-35Z" fill="#21171f" stroke="#21171f" stroke-width="1.51"/><path d="M1889,-80L1921,-77L1992,-105Z" fill="#1b1219" stroke="#1b1219" stroke-width="1.51"/><path d="M1977,132L1943,188L2017,165Z" fill="#763468" stroke="#763468" stroke-width="1.51"/><path d="M1888,384L1802,398L1967,421Z" fill="#281c25" stroke="#281c25" stroke-width="1.51"/><path d="M1966,39L1933,116L1977,132Z" fill="#6b4864" stroke="#6b4864" stroke-width="1.51"/><path d="M1952,306L1888,384L1967,421Z" fill="#2c2029" stroke="#2c2029" stroke-width="1.51"/><path d="M1943,188L1971,265L1984,257Z" fill="#6e596a" stroke="#6e596a" stroke-width="1.51"/><path d="M1943,188L1873,210L1971,265Z" fill="#775d72" stroke="#775d72" stroke-width="1.51"/><path d="M1933,116L1943,188L1977,132Z" fill="#773b6a" stroke="#773b6a" stroke-width="1.51"/><path d="M1852,276L1952,306L1971,265Z" fill="#5c4e59" stroke="#5c4e59" stroke-width="1.51"/><path d="M1873,210L1852,276L1971,265Z" fill="#705b6b" stroke="#705b6b" stroke-width="1.51"/><path d="M1847,67L1897,121L1933,116Z" fill="#764d6d" stroke="#764d6d" stroke-width="1.51"/><path d="M1847,67L1933,116L1966,39Z" fill="#60435a" stroke="#60435a" stroke-width="1.51"/><path d="M1913,-18L1847,67L1966,39Z" fill="#453442" stroke="#453442" stroke-width="1.51"/><path d="M1933,116L1897,121L1943,188Z" fill="#793e6d" stroke="#793e6d" stroke-width="1.51"/><path d="M1846,348L1888,384L1952,306Z" fill="#342831" stroke="#342831" stroke-width="1.51"/><path d="M1852,276L1846,348L1952,306Z" fill="#473b45" stroke="#473b45" stroke-width="1.51"/><path d="M1838,11L1847,67L1913,-18Z" fill="#443240" stroke="#443240" stroke-width="1.51"/><path d="M1897,121L1873,210L1943,188Z" fill="#7d4270" stroke="#7d4270" stroke-width="1.51"/><path d="M1889,-80L1913,-18L1921,-77Z" fill="#20161e" stroke="#20161e" stroke-width="1.51"/><path d="M1889,-80L1838,11L1913,-18Z" fill="#2d1f2a" stroke="#2d1f2a" stroke-width="1.51"/><path d="M1797,-37L1838,11L1889,-80Z" fill="#2d1f2a" stroke="#2d1f2a" stroke-width="1.51"/><path d="M1800,123L1873,210L1897,121Z" fill="#803f73" stroke="#803f73" stroke-width="1.51"/><path d="M1847,67L1800,123L1897,121Z" fill="#7b5173" stroke="#7b5173" stroke-width="1.51"/><path d="M1824,-114L1797,-37L1889,-80Z" fill="#231821" stroke="#231821" stroke-width="1.51"/><path d="M1819,327L1846,348L1852,276Z" fill="#453842" stroke="#453842" stroke-width="1.51"/><path d="M1846,348L1802,398L1888,384Z" fill="#32232f" stroke="#32232f" stroke-width="1.51"/><path d="M1811,265L1852,276L1873,210Z" fill="#745f6f" stroke="#745f6f" stroke-width="1.51"/><path d="M1773,214L1811,265L1873,210Z" fill="#7e6378" stroke="#7e6378" stroke-width="1.51"/><path d="M1800,123L1773,214L1873,210Z" fill="#854f79" stroke="#854f79" stroke-width="1.51"/><path d="M1838,11L1795,35L1847,67Z" fill="#503d4c" stroke="#503d4c" stroke-width="1.51"/><path d="M1811,265L1819,327L1852,276Z" fill="#5e4f5b" stroke="#5e4f5b" stroke-width="1.51"/><path d="M1819,327L1802,398L1846,348Z" fill="#372935" stroke="#372935" stroke-width="1.51"/><path d="M1795,35L1800,123L1847,67Z" fill="#694b63" stroke="#694b63" stroke-width="1.51"/><path d="M1797,-37L1795,35L1838,11Z" fill="#3f2d3c" stroke="#3f2d3c" stroke-width="1.51"/><path d="M1795,35L1737,93L1800,123Z" fill="#724f6b" stroke="#724f6b" stroke-width="1.51"/><path d="M1811,265L1713,325L1819,327Z" fill="#534550" stroke="#534550" stroke-width="1.51"/><path d="M1713,325L1802,398L1819,327Z" fill="#3b2e38" stroke="#3b2e38" stroke-width="1.51"/><path d="M1712,-61L1797,-37L1824,-114Z" fill="#261b24" stroke="#261b24" stroke-width="1.51"/><path d="M1651,-105L1712,-61L1824,-114Z" fill="#281d25" stroke="#281d25" stroke-width="1.51"/><path d="M1742,-8L1795,35L1797,-37Z" fill="#3e2c3a" stroke="#3e2c3a" stroke-width="1.51"/><path d="M1715,265L1713,325L1811,265Z" fill="#665863" stroke="#665863" stroke-width="1.51"/><path d="M1740,217L1773,214L1800,123Z" fill="#88537c" stroke="#88537c" stroke-width="1.51"/><path d="M1773,214L1715,265L1811,265Z" fill="#7a6575" stroke="#7a6575" stroke-width="1.51"/><path d="M1737,93L1682,148L1740,217Z" fill="#8a477c" stroke="#8a477c" stroke-width="1.51"/><path d="M1740,217L1715,265L1773,214Z" fill="#82687c" stroke="#82687c" stroke-width="1.51"/><path d="M1737,93L1740,217L1800,123Z" fill="#874879" stroke="#874879" stroke-width="1.51"/><path d="M1713,325L1731,428L1802,398Z" fill="#362833" stroke="#362833" stroke-width="1.51"/><path d="M1718,57L1737,93L1795,35Z" fill="#644b5f" stroke="#644b5f" stroke-width="1.51"/><path d="M1712,-61L1742,-8L1797,-37Z" fill="#32242f" stroke="#32242f" stroke-width="1.51"/><path d="M1742,-8L1718,57L1795,35Z" fill="#4f3d4c" stroke="#4f3d4c" stroke-width="1.51"/><path d="M1464,-101L1573,-84L1651,-105Z" fill="#372e35" stroke="#372e35" stroke-width="1.51"/><path d="M1604,389L1454,411L1676,422Z" fill="#3d323a" stroke="#3d323a" stroke-width="1.51"/><path d="M1713,325L1676,422L1731,428Z" fill="#352933" stroke="#352933" stroke-width="1.51"/><path d="M1682,148L1663,166L1740,217Z" fill="#8c5380" stroke="#8c5380" stroke-width="1.51"/><path d="M1676,-36L1718,57L1742,-8Z" fill="#453442" stroke="#453442" stroke-width="1.51"/><path d="M1712,-61L1676,-36L1742,-8Z" fill="#342732" stroke="#342732" stroke-width="1.51"/><path d="M1663,166L1715,265L1740,217Z" fill="#8a6d84" stroke="#8a6d84" stroke-width="1.51"/><path d="M1676,-36L1655,58L1718,57Z" fill="#53414f" stroke="#53414f" stroke-width="1.51"/><path d="M1718,57L1655,58L1737,93Z" fill="#6c5066" stroke="#6c5066" stroke-width="1.51"/><path d="M1655,58L1682,148L1737,93Z" fill="#825a7a" stroke="#825a7a" stroke-width="1.51"/><path d="M1641,308L1604,389L1676,422Z" fill="#3d313b" stroke="#3d313b" stroke-width="1.51"/><path d="M1641,308L1676,422L1713,325Z" fill="#40343d" stroke="#40343d" stroke-width="1.51"/><path d="M1663,166L1615,258L1715,265Z" fill="#876e82" stroke="#876e82" stroke-width="1.51"/><path d="M1615,258L1658,288L1715,265Z" fill="#786974" stroke="#786974" stroke-width="1.51"/><path d="M1658,288L1713,325L1715,265Z" fill="#625560" stroke="#625560" stroke-width="1.51"/><path d="M1603,210L1615,258L1663,166Z" fill="#8f6f88" stroke="#8f6f88" stroke-width="1.51"/><path d="M1651,-105L1676,-36L1712,-61Z" fill="#2b2129" stroke="#2b2129" stroke-width="1.51"/><path d="M1658,288L1641,308L1713,325Z" fill="#574b55" stroke="#574b55" stroke-width="1.51"/><path d="M1584,26L1655,58L1676,-36Z" fill="#4f3f4c" stroke="#4f3f4c" stroke-width="1.51"/><path d="M1592,97L1663,166L1682,148Z" fill="#8d5380" stroke="#8d5380" stroke-width="1.51"/><path d="M1655,58L1592,97L1682,148Z" fill="#865e7e" stroke="#865e7e" stroke-width="1.51"/><path d="M1562,3L1584,26L1676,-36Z" fill="#483845" stroke="#483845" stroke-width="1.51"/><path d="M1573,-84L1562,3L1676,-36Z" fill="#392d37" stroke="#392d37" stroke-width="1.51"/><path d="M1651,-105L1573,-84L1676,-36Z" fill="#2d242b" stroke="#2d242b" stroke-width="1.51"/><path d="M563,-112L730,-90L985,-117Z" fill="#6b4463" stroke="#6b4463" stroke-width="1.51"/><path d="M1517,377L1454,411L1604,389Z" fill="#4d404a" stroke="#4d404a" stroke-width="1.51"/><path d="M1592,97L1603,210L1663,166Z" fill="#914d82" stroke="#914d82" stroke-width="1.51"/><path d="M1615,258L1641,308L1658,288Z" fill="#6d606a" stroke="#6d606a" stroke-width="1.51"/><path d="M1584,26L1592,97L1655,58Z" fill="#6b5466" stroke="#6b5466" stroke-width="1.51"/><path d="M1566,303L1604,389L1641,308Z" fill="#483e46" stroke="#483e46" stroke-width="1.51"/><path d="M1545,-55L1562,3L1573,-84Z" fill="#40343d" stroke="#40343d" stroke-width="1.51"/><path d="M1615,258L1566,303L1641,308Z" fill="#6b5e68" stroke="#6b5e68" stroke-width="1.51"/><path d="M1552,97L1532,188L1592,97Z" fill="#9b658e" stroke="#9b658e" stroke-width="1.51"/><path d="M1592,97L1532,188L1603,210Z" fill="#9b588b" stroke="#9b588b" stroke-width="1.51"/><path d="M1566,303L1535,330L1604,389Z" fill="#4f444d" stroke="#4f444d" stroke-width="1.51"/><path d="M1603,210L1543,278L1615,258Z" fill="#897584" stroke="#897584" stroke-width="1.51"/><path d="M1543,278L1566,303L1615,258Z" fill="#7c6e79" stroke="#7c6e79" stroke-width="1.51"/><path d="M1545,-55L1538,-26L1562,3Z" fill="#4a3c48" stroke="#4a3c48" stroke-width="1.51"/><path d="M1584,26L1552,97L1592,97Z" fill="#7d6076" stroke="#7d6076" stroke-width="1.51"/><path d="M1532,188L1543,278L1603,210Z" fill="#987f93" stroke="#987f93" stroke-width="1.51"/><path d="M1535,330L1517,377L1604,389Z" fill="#4e414b" stroke="#4e414b" stroke-width="1.51"/><path d="M1339,398L1248,432L1454,411Z" fill="#685764" stroke="#685764" stroke-width="1.51"/><path d="M1523,76L1552,97L1584,26Z" fill="#7d6378" stroke="#7d6378" stroke-width="1.51"/><path d="M1562,3L1523,76L1584,26Z" fill="#685663" stroke="#685663" stroke-width="1.51"/><path d="M1464,-101L1545,-55L1573,-84Z" fill="#3f353d" stroke="#3f353d" stroke-width="1.51"/><path d="M1543,278L1535,330L1566,303Z" fill="#6b5f69" stroke="#6b5f69" stroke-width="1.51"/><path d="M1473,-24L1523,76L1538,-26Z" fill="#635260" stroke="#635260" stroke-width="1.51"/><path d="M1445,140L1532,188L1552,97Z" fill="#aa6a9b" stroke="#aa6a9b" stroke-width="1.51"/><path d="M1523,76L1445,140L1552,97Z" fill="#a4799b" stroke="#a4799b" stroke-width="1.51"/><path d="M1538,-26L1523,76L1562,3Z" fill="#62505e" stroke="#62505e" stroke-width="1.51"/><path d="M1532,188L1473,292L1543,278Z" fill="#998595" stroke="#998595" stroke-width="1.51"/><path d="M1429,225L1473,292L1532,188Z" fill="#a990a4" stroke="#a990a4" stroke-width="1.51"/><path d="M1473,292L1535,330L1543,278Z" fill="#766973" stroke="#766973" stroke-width="1.51"/><path d="M1473,-24L1538,-26L1545,-55Z" fill="#4d3f4b" stroke="#4d3f4b" stroke-width="1.51"/><path d="M1464,-101L1473,-24L1545,-55Z" fill="#493d46" stroke="#493d46" stroke-width="1.51"/><path d="M1473,-24L1436,70L1523,76Z" fill="#7e6979" stroke="#7e6979" stroke-width="1.51"/><path d="M1473,292L1517,377L1535,330Z" fill="#5e525b" stroke="#5e525b" stroke-width="1.51"/><path d="M1445,140L1429,225L1532,188Z" fill="#b67fa8" stroke="#b67fa8" stroke-width="1.51"/><path d="M1473,292L1421,314L1517,377Z" fill="#695c66" stroke="#695c66" stroke-width="1.51"/><path d="M1436,70L1445,140L1523,76Z" fill="#a87f9f" stroke="#a87f9f" stroke-width="1.51"/><path d="M1421,314L1454,411L1517,377Z" fill="#61535e" stroke="#61535e" stroke-width="1.51"/><path d="M1408,187L1429,225L1445,140Z" fill="#c188b3" stroke="#c188b3" stroke-width="1.51"/><path d="M1421,314L1399,344L1454,411Z" fill="#6d5e69" stroke="#6d5e69" stroke-width="1.51"/><path d="M1310,-108L1380,-77L1464,-101Z" fill="#5d515a" stroke="#5d515a" stroke-width="1.51"/><path d="M1370,32L1436,70L1473,-24Z" fill="#816e7d" stroke="#816e7d" stroke-width="1.51"/><path d="M1374,-28L1370,32L1473,-24Z" fill="#74606f" stroke="#74606f" stroke-width="1.51"/><path d="M1464,-101L1380,-77L1473,-24Z" fill="#534851" stroke="#534851" stroke-width="1.51"/><path d="M1380,-77L1374,-28L1473,-24Z" fill="#635460" stroke="#635460" stroke-width="1.51"/><path d="M1429,225L1411,246L1473,292Z" fill="#ac97a7" stroke="#ac97a7" stroke-width="1.51"/><path d="M1411,246L1421,314L1473,292Z" fill="#998a96" stroke="#998a96" stroke-width="1.51"/><path d="M1127,390L895,414L1248,432Z" fill="#794e70" stroke="#794e70" stroke-width="1.51"/><path d="M1436,70L1349,110L1445,140Z" fill="#be8eb3" stroke="#be8eb3" stroke-width="1.51"/><path d="M1364,378L1339,398L1454,411Z" fill="#6b5b67" stroke="#6b5b67" stroke-width="1.51"/><path d="M1399,344L1364,378L1454,411Z" fill="#6c5c69" stroke="#6c5c69" stroke-width="1.51"/><path d="M964,392L895,414L1127,390Z" fill="#7f4071" stroke="#7f4071" stroke-width="1.51"/><path d="M1349,110L1408,187L1445,140Z" fill="#c782b7" stroke="#c782b7" stroke-width="1.51"/><path d="M1370,32L1349,110L1436,70Z" fill="#a988a2" stroke="#a988a2" stroke-width="1.51"/><path d="M1408,187L1411,246L1429,225Z" fill="#c0a1b9" stroke="#c0a1b9" stroke-width="1.51"/><path d="M1349,110L1341,192L1408,187Z" fill="#cd81bb" stroke="#cd81bb" stroke-width="1.51"/><path d="M1411,246L1327,234L1421,314Z" fill="#b4a1af" stroke="#b4a1af" stroke-width="1.51"/><path d="M1327,234L1399,344L1421,314Z" fill="#988895" stroke="#988895" stroke-width="1.51"/><path d="M1327,234L1307,361L1399,344Z" fill="#8d7b89" stroke="#8d7b89" stroke-width="1.51"/><path d="M1408,187L1341,192L1411,246Z" fill="#c9a2bf" stroke="#c9a2bf" stroke-width="1.51"/><path d="M1341,192L1327,234L1411,246Z" fill="#c7a7c0" stroke="#c7a7c0" stroke-width="1.51"/><path d="M1307,361L1364,378L1399,344Z" fill="#776572" stroke="#776572" stroke-width="1.51"/><path d="M1025,382L964,392L1127,390Z" fill="#834b77" stroke="#834b77" stroke-width="1.51"/><path d="M1318,97L1349,110L1370,32Z" fill="#b38dab" stroke="#b38dab" stroke-width="1.51"/><path d="M1277,-30L1370,32L1374,-28Z" fill="#7a6476" stroke="#7a6476" stroke-width="1.51"/><path d="M1310,-108L1277,-30L1374,-28Z" fill="#695664" stroke="#695664" stroke-width="1.51"/><path d="M1310,-108L1374,-28L1380,-77Z" fill="#60525d" stroke="#60525d" stroke-width="1.51"/><path d="M1269,13L1285,42L1370,32Z" fill="#94798e" stroke="#94798e" stroke-width="1.51"/><path d="M1277,-30L1269,13L1370,32Z" fill="#866c80" stroke="#866c80" stroke-width="1.51"/><path d="M1285,42L1318,97L1370,32Z" fill="#a4869e" stroke="#a4869e" stroke-width="1.51"/><path d="M1318,97L1341,192L1349,110Z" fill="#cc8bbe" stroke="#cc8bbe" stroke-width="1.51"/><path d="M1307,361L1339,398L1364,378Z" fill="#746070" stroke="#746070" stroke-width="1.51"/><path d="M1235,258L1307,361L1327,234Z" fill="#af97a9" stroke="#af97a9" stroke-width="1.51"/><path d="M1318,97L1215,172L1341,192Z" fill="#d483c2" stroke="#d483c2" stroke-width="1.51"/><path d="M1230,100L1215,172L1318,97Z" fill="#d391c5" stroke="#d391c5" stroke-width="1.51"/><path d="M1215,172L1327,234L1341,192Z" fill="#d39ec7" stroke="#d39ec7" stroke-width="1.51"/><path d="M1307,361L1248,432L1339,398Z" fill="#725d6e" stroke="#725d6e" stroke-width="1.51"/><path d="M1235,258L1211,317L1307,361Z" fill="#977f92" stroke="#977f92" stroke-width="1.51"/><path d="M1215,172L1235,258L1327,234Z" fill="#d3abca" stroke="#d3abca" stroke-width="1.51"/><path d="M1239,-102L1277,-30L1310,-108Z" fill="#685464" stroke="#685464" stroke-width="1.51"/><path d="M1285,42L1230,100L1318,97Z" fill="#bb8fb1" stroke="#bb8fb1" stroke-width="1.51"/><path d="M1184,361L1248,432L1307,361Z" fill="#7c6276" stroke="#7c6276" stroke-width="1.51"/><path d="M1211,317L1184,361L1307,361Z" fill="#866d80" stroke="#866d80" stroke-width="1.51"/><path d="M1239,-102L1201,-75L1277,-30Z" fill="#6c5667" stroke="#6c5667" stroke-width="1.51"/><path d="M1269,13L1210,85L1285,42Z" fill="#a3859d" stroke="#a3859d" stroke-width="1.51"/><path d="M1210,85L1230,100L1285,42Z" fill="#bb8fb2" stroke="#bb8fb2" stroke-width="1.51"/><path d="M1027,-113L1201,-75L1239,-102Z" fill="#71536a" stroke="#71536a" stroke-width="1.51"/><path d="M1201,-75L1157,-12L1269,13Z" fill="#80637a" stroke="#80637a" stroke-width="1.51"/><path d="M1201,-75L1269,13L1277,-30Z" fill="#7a6075" stroke="#7a6075" stroke-width="1.51"/><path d="M1157,-12L1210,85L1269,13Z" fill="#9d7c96" stroke="#9d7c96" stroke-width="1.51"/><path d="M1027,-113L1096,-62L1201,-75Z" fill="#724c69" stroke="#724c69" stroke-width="1.51"/><path d="M1215,172L1190,269L1235,258Z" fill="#d3abca" stroke="#d3abca" stroke-width="1.51"/><path d="M1190,269L1211,317L1235,258Z" fill="#ba9db3" stroke="#ba9db3" stroke-width="1.51"/><path d="M1184,361L1160,373L1248,432Z" fill="#7f6279" stroke="#7f6279" stroke-width="1.51"/><path d="M1160,373L1127,390L1248,432Z" fill="#7d6078" stroke="#7d6078" stroke-width="1.51"/><path d="M1157,-12L1159,85L1210,85Z" fill="#b089a8" stroke="#b089a8" stroke-width="1.51"/><path d="M1210,85L1142,134L1215,172Z" fill="#db90cb" stroke="#db90cb" stroke-width="1.51"/><path d="M1147,194L1190,269L1215,172Z" fill="#deabd3" stroke="#deabd3" stroke-width="1.51"/><path d="M1210,85L1215,172L1230,100Z" fill="#d693c8" stroke="#d693c8" stroke-width="1.51"/><path d="M1157,-12L1124,61L1159,85Z" fill="#ab81a2" stroke="#ab81a2" stroke-width="1.51"/><path d="M1159,85L1142,134L1210,85Z" fill="#d698c9" stroke="#d698c9" stroke-width="1.51"/><path d="M1142,134L1147,194L1215,172Z" fill="#e088cd" stroke="#e088cd" stroke-width="1.51"/><path d="M1190,269L1126,294L1211,317Z" fill="#b293ab" stroke="#b293ab" stroke-width="1.51"/><path d="M1126,294L1184,361L1211,317Z" fill="#93768e" stroke="#93768e" stroke-width="1.51"/><path d="M1096,-62L1157,-12L1201,-75Z" fill="#795871" stroke="#795871" stroke-width="1.51"/><path d="M1126,294L1160,373L1184,361Z" fill="#8c6c86" stroke="#8c6c86" stroke-width="1.51"/><path d="M1147,194L1126,294L1190,269Z" fill="#d0a5c6" stroke="#d0a5c6" stroke-width="1.51"/><path d="M1110,7L1124,61L1157,-12Z" fill="#9b6f92" stroke="#9b6f92" stroke-width="1.51"/><path d="M1126,294L1075,344L1127,390Z" fill="#8d6484" stroke="#8d6484" stroke-width="1.51"/><path d="M1044,212L1126,294L1147,194Z" fill="#d89ecb" stroke="#d89ecb" stroke-width="1.51"/><path d="M1142,134L1090,163L1147,194Z" fill="#e17dcb" stroke="#e17dcb" stroke-width="1.51"/><path d="M1096,-62L1110,7L1157,-12Z" fill="#855b7c" stroke="#855b7c" stroke-width="1.51"/><path d="M1124,61L1142,134L1159,85Z" fill="#d090c2" stroke="#d090c2" stroke-width="1.51"/><path d="M1126,294L1127,390L1160,373Z" fill="#8a6683" stroke="#8a6683" stroke-width="1.51"/><path d="M1124,61L1074,157L1142,134Z" fill="#db89c9" stroke="#db89c9" stroke-width="1.51"/><path d="M1090,163L1044,212L1147,194Z" fill="#e18bce" stroke="#e18bce" stroke-width="1.51"/><path d="M1074,157L1090,163L1142,134Z" fill="#df78ca" stroke="#df78ca" stroke-width="1.51"/><path d="M1029,78L1029,128L1074,157Z" fill="#dc79c6" stroke="#dc79c6" stroke-width="1.51"/><path d="M1029,78L1074,157L1124,61Z" fill="#d585c4" stroke="#d585c4" stroke-width="1.51"/><path d="M1044,212L1026,256L1126,294Z" fill="#d195c3" stroke="#d195c3" stroke-width="1.51"/><path d="M1026,256L1031,315L1126,294Z" fill="#b983ac" stroke="#b983ac" stroke-width="1.51"/><path d="M1075,344L1025,382L1127,390Z" fill="#87567c" stroke="#87567c" stroke-width="1.51"/><path d="M1110,7L1029,78L1124,61Z" fill="#ae78a2" stroke="#ae78a2" stroke-width="1.51"/><path d="M1031,315L1075,344L1126,294Z" fill="#9b6c90" stroke="#9b6c90" stroke-width="1.51"/><path d="M990,34L1029,78L1110,7Z" fill="#a96a9b" stroke="#a96a9b" stroke-width="1.51"/><path d="M1015,-32L990,34L1110,7Z" fill="#935686" stroke="#935686" stroke-width="1.51"/><path d="M1096,-62L1015,-32L1110,7Z" fill="#835178" stroke="#835178" stroke-width="1.51"/><path d="M1074,157L1044,212L1090,163Z" fill="#e17ccb" stroke="#e17ccb" stroke-width="1.51"/><path d="M1027,-113L1015,-32L1096,-62Z" fill="#734169" stroke="#734169" stroke-width="1.51"/><path d="M1029,128L1044,212L1074,157Z" fill="#e16dc9" stroke="#e16dc9" stroke-width="1.51"/><path d="M1031,315L1025,382L1075,344Z" fill="#8d5781" stroke="#8d5781" stroke-width="1.51"/><path d="M328,-118L487,-104L563,-112Z" fill="#3c2d39" stroke="#3c2d39" stroke-width="1.51"/><path d="M730,-90L878,-66L985,-117Z" fill="#6f3a64" stroke="#6f3a64" stroke-width="1.51"/><path d="M985,-117L1015,-32L1027,-113Z" fill="#723a66" stroke="#723a66" stroke-width="1.51"/><path d="M945,129L936,209L1029,128Z" fill="#df57c4" stroke="#df57c4" stroke-width="1.51"/><path d="M1029,128L936,209L1044,212Z" fill="#e172c9" stroke="#e172c9" stroke-width="1.51"/><path d="M936,209L1026,256L1044,212Z" fill="#dd8bca" stroke="#dd8bca" stroke-width="1.51"/><path d="M952,320L964,392L1025,382Z" fill="#89467b" stroke="#89467b" stroke-width="1.51"/><path d="M936,209L943,248L1026,256Z" fill="#d883c5" stroke="#d883c5" stroke-width="1.51"/><path d="M943,248L952,320L1026,256Z" fill="#c87eb6" stroke="#c87eb6" stroke-width="1.51"/><path d="M1029,78L945,129L1029,128Z" fill="#db74c5" stroke="#db74c5" stroke-width="1.51"/><path d="M1026,256L952,320L1031,315Z" fill="#b170a1" stroke="#b170a1" stroke-width="1.51"/><path d="M952,320L1025,382L1031,315Z" fill="#8f5281" stroke="#8f5281" stroke-width="1.51"/><path d="M990,34L945,129L1029,78Z" fill="#c76db4" stroke="#c76db4" stroke-width="1.51"/><path d="M948,-10L990,34L1015,-32Z" fill="#904980" stroke="#904980" stroke-width="1.51"/><path d="M730,-90L812,-61L878,-66Z" fill="#6e4064" stroke="#6e4064" stroke-width="1.51"/><path d="M985,-117L948,-10L1015,-32Z" fill="#78386b" stroke="#78386b" stroke-width="1.51"/><path d="M864,16L858,85L948,-10Z" fill="#a15d93" stroke="#a15d93" stroke-width="1.51"/><path d="M943,248L919,274L952,320Z" fill="#c179b0" stroke="#c179b0" stroke-width="1.51"/><path d="M878,-66L948,-10L985,-117Z" fill="#733365" stroke="#733365" stroke-width="1.51"/><path d="M948,-10L858,85L990,34Z" fill="#a65c96" stroke="#a65c96" stroke-width="1.51"/><path d="M858,85L920,127L990,34Z" fill="#c76db4" stroke="#c76db4" stroke-width="1.51"/><path d="M920,127L945,129L990,34Z" fill="#d46dbf" stroke="#d46dbf" stroke-width="1.51"/><path d="M920,127L936,209L945,129Z" fill="#df59c4" stroke="#df59c4" stroke-width="1.51"/><path d="M884,304L895,414L952,320Z" fill="#8c4c7e" stroke="#8c4c7e" stroke-width="1.51"/><path d="M952,320L895,414L964,392Z" fill="#864277" stroke="#864277" stroke-width="1.51"/><path d="M328,-118L403,-105L487,-104Z" fill="#352732" stroke="#352732" stroke-width="1.51"/><path d="M920,127L863,200L936,209Z" fill="#df6bc7" stroke="#df6bc7" stroke-width="1.51"/><path d="M919,274L884,304L952,320Z" fill="#ad6a9d" stroke="#ad6a9d" stroke-width="1.51"/><path d="M878,-66L864,16L948,-10Z" fill="#854477" stroke="#854477" stroke-width="1.51"/><path d="M936,209L919,274L943,248Z" fill="#d484c2" stroke="#d484c2" stroke-width="1.51"/><path d="M678,414L572,430L743,425Z" fill="#61425b" stroke="#61425b" stroke-width="1.51"/><path d="M863,200L919,274L936,209Z" fill="#da89c8" stroke="#da89c8" stroke-width="1.51"/><path d="M-1,-112L100,-99L328,-118Z" fill="#1a1018" stroke="#1a1018" stroke-width="1.51"/><path d="M884,304L818,380L895,414Z" fill="#854b79" stroke="#854b79" stroke-width="1.51"/><path d="M863,200L884,304L919,274Z" fill="#cd86bd" stroke="#cd86bd" stroke-width="1.51"/><path d="M841,100L863,200L920,127Z" fill="#dc67c4" stroke="#dc67c4" stroke-width="1.51"/><path d="M858,85L841,100L920,127Z" fill="#d778c4" stroke="#d778c4" stroke-width="1.51"/><path d="M841,100L808,185L863,200Z" fill="#dd64c4" stroke="#dd64c4" stroke-width="1.51"/><path d="M812,-61L864,16L878,-66Z" fill="#7c4470" stroke="#7c4470" stroke-width="1.51"/><path d="M811,345L818,380L884,304Z" fill="#8a557f" stroke="#8a557f" stroke-width="1.51"/><path d="M863,200L822,295L884,304Z" fill="#c989ba" stroke="#c989ba" stroke-width="1.51"/><path d="M818,380L743,425L895,414Z" fill="#77456d" stroke="#77456d" stroke-width="1.51"/><path d="M812,-61L797,-25L864,16Z" fill="#814b76" stroke="#814b76" stroke-width="1.51"/><path d="M819,29L858,85L864,16Z" fill="#a8689b" stroke="#a8689b" stroke-width="1.51"/><path d="M822,295L811,345L884,304Z" fill="#9b648f" stroke="#9b648f" stroke-width="1.51"/><path d="M769,243L822,295L863,200Z" fill="#cf8fc1" stroke="#cf8fc1" stroke-width="1.51"/><path d="M808,185L769,243L863,200Z" fill="#db8ecb" stroke="#db8ecb" stroke-width="1.51"/><path d="M797,-25L819,29L864,16Z" fill="#915785" stroke="#915785" stroke-width="1.51"/><path d="M819,29L841,100L858,85Z" fill="#bc72ad" stroke="#bc72ad" stroke-width="1.51"/><path d="M563,-112L600,-92L730,-90Z" fill="#573d52" stroke="#573d52" stroke-width="1.51"/><path d="M735,101L743,173L808,185Z" fill="#d96fc4" stroke="#d96fc4" stroke-width="1.51"/><path d="M735,101L808,185L841,100Z" fill="#d876c4" stroke="#d876c4" stroke-width="1.51"/><path d="M748,73L735,101L841,100Z" fill="#c97fba" stroke="#c97fba" stroke-width="1.51"/><path d="M819,29L748,73L841,100Z" fill="#b874aa" stroke="#b874aa" stroke-width="1.51"/><path d="M797,-25L764,-1L819,29Z" fill="#8c5781" stroke="#8c5781" stroke-width="1.51"/><path d="M755,304L811,345L822,295Z" fill="#99688e" stroke="#99688e" stroke-width="1.51"/><path d="M769,243L755,304L822,295Z" fill="#bb88af" stroke="#bb88af" stroke-width="1.51"/><path d="M764,-1L748,73L819,29Z" fill="#a06a94" stroke="#a06a94" stroke-width="1.51"/><path d="M811,345L709,366L818,380Z" fill="#845479" stroke="#845479" stroke-width="1.51"/><path d="M709,366L743,425L818,380Z" fill="#7b4f72" stroke="#7b4f72" stroke-width="1.51"/><path d="M755,304L709,366L811,345Z" fill="#885d80" stroke="#885d80" stroke-width="1.51"/><path d="M730,-90L797,-25L812,-61Z" fill="#714467" stroke="#714467" stroke-width="1.51"/><path d="M743,173L769,243L808,185Z" fill="#da8cc9" stroke="#da8cc9" stroke-width="1.51"/><path d="M730,-90L764,-1L797,-25Z" fill="#794c6f" stroke="#794c6f" stroke-width="1.51"/><path d="M730,-90L684,-63L764,-1Z" fill="#6f4867" stroke="#6f4867" stroke-width="1.51"/><path d="M698,32L748,73L764,-1Z" fill="#9d6d94" stroke="#9d6d94" stroke-width="1.51"/><path d="M683,265L755,304L769,243Z" fill="#c193b7" stroke="#c193b7" stroke-width="1.51"/><path d="M743,173L683,265L769,243Z" fill="#d198c6" stroke="#d198c6" stroke-width="1.51"/><path d="M735,101L691,155L743,173Z" fill="#d375c0" stroke="#d375c0" stroke-width="1.51"/><path d="M664,-36L698,32L764,-1Z" fill="#83587a" stroke="#83587a" stroke-width="1.51"/><path d="M684,-63L664,-36L764,-1Z" fill="#734c6b" stroke="#734c6b" stroke-width="1.51"/><path d="M654,178L683,265L691,155Z" fill="#cb88bd" stroke="#cb88bd" stroke-width="1.51"/><path d="M691,155L683,265L743,173Z" fill="#d189c2" stroke="#d189c2" stroke-width="1.51"/><path d="M683,265L709,366L755,304Z" fill="#956e8c" stroke="#956e8c" stroke-width="1.51"/><path d="M600,-92L684,-63L730,-90Z" fill="#5f4059" stroke="#5f4059" stroke-width="1.51"/><path d="M709,366L678,414L743,425Z" fill="#714b69" stroke="#714b69" stroke-width="1.51"/><path d="M698,32L735,101L748,73Z" fill="#b47aa8" stroke="#b47aa8" stroke-width="1.51"/><path d="M698,32L629,129L735,101Z" fill="#ba7dad" stroke="#ba7dad" stroke-width="1.51"/><path d="M629,129L691,155L735,101Z" fill="#ca78b9" stroke="#ca78b9" stroke-width="1.51"/><path d="M683,265L632,287L709,366Z" fill="#936f8b" stroke="#936f8b" stroke-width="1.51"/><path d="M641,404L572,430L678,414Z" fill="#5e4258" stroke="#5e4258" stroke-width="1.51"/><path d="M606,38L629,129L698,32Z" fill="#a17398" stroke="#a17398" stroke-width="1.51"/><path d="M602,333L641,404L709,366Z" fill="#70506a" stroke="#70506a" stroke-width="1.51"/><path d="M632,287L602,333L709,366Z" fill="#785a72" stroke="#785a72" stroke-width="1.51"/><path d="M641,404L678,414L709,366Z" fill="#6d4a66" stroke="#6d4a66" stroke-width="1.51"/><path d="M654,178L630,189L683,265Z" fill="#c78fbb" stroke="#c78fbb" stroke-width="1.51"/><path d="M664,-36L612,-19L698,32Z" fill="#76506e" stroke="#76506e" stroke-width="1.51"/><path d="M612,-19L606,38L698,32Z" fill="#805c79" stroke="#805c79" stroke-width="1.51"/><path d="M630,189L632,287L683,265Z" fill="#b88eaf" stroke="#b88eaf" stroke-width="1.51"/><path d="M629,129L654,178L691,155Z" fill="#c86bb4" stroke="#c86bb4" stroke-width="1.51"/><path d="M600,-92L664,-36L684,-63Z" fill="#5c3f56" stroke="#5c3f56" stroke-width="1.51"/><path d="M600,-92L612,-19L664,-36Z" fill="#5e4259" stroke="#5e4259" stroke-width="1.51"/><path d="M630,189L555,200L632,287Z" fill="#b88db0" stroke="#b88db0" stroke-width="1.51"/><path d="M629,129L630,189L654,178Z" fill="#c46bb2" stroke="#c46bb2" stroke-width="1.51"/><path d="M491,393L324,430L572,430Z" fill="#42323f" stroke="#42323f" stroke-width="1.51"/><path d="M606,38L541,49L629,129Z" fill="#9b7092" stroke="#9b7092" stroke-width="1.51"/><path d="M555,200L551,285L632,287Z" fill="#a687a0" stroke="#a687a0" stroke-width="1.51"/><path d="M602,333L572,430L641,404Z" fill="#62475d" stroke="#62475d" stroke-width="1.51"/><path d="M541,49L521,115L629,129Z" fill="#a9769f" stroke="#a9769f" stroke-width="1.51"/><path d="M629,129L555,200L630,189Z" fill="#be6fad" stroke="#be6fad" stroke-width="1.51"/><path d="M551,285L602,333L632,287Z" fill="#876c81" stroke="#876c81" stroke-width="1.51"/><path d="M521,115L555,200L629,129Z" fill="#b567a5" stroke="#b567a5" stroke-width="1.51"/><path d="M563,-112L535,-3L600,-92Z" fill="#4d3949" stroke="#4d3949" stroke-width="1.51"/><path d="M525,324L572,430L602,333Z" fill="#614a5d" stroke="#614a5d" stroke-width="1.51"/><path d="M535,-3L606,38L612,-19Z" fill="#70526a" stroke="#70526a" stroke-width="1.51"/><path d="M600,-92L535,-3L612,-19Z" fill="#5b4256" stroke="#5b4256" stroke-width="1.51"/><path d="M535,-3L541,49L606,38Z" fill="#785c73" stroke="#785c73" stroke-width="1.51"/><path d="M525,324L491,393L572,430Z" fill="#574353" stroke="#574353" stroke-width="1.51"/><path d="M551,285L525,324L602,333Z" fill="#755f70" stroke="#755f70" stroke-width="1.51"/><path d="M488,255L551,285L555,200Z" fill="#a1849b" stroke="#a1849b" stroke-width="1.51"/><path d="M487,-104L535,-3L563,-112Z" fill="#463643" stroke="#463643" stroke-width="1.51"/><path d="M487,-104L469,-21L535,-3Z" fill="#4b3948" stroke="#4b3948" stroke-width="1.51"/><path d="M498,94L521,115L541,49Z" fill="#986e90" stroke="#986e90" stroke-width="1.51"/><path d="M521,115L438,187L555,200Z" fill="#ab629b" stroke="#ab629b" stroke-width="1.51"/><path d="M438,187L488,255L555,200Z" fill="#a781a0" stroke="#a781a0" stroke-width="1.51"/><path d="M488,255L525,324L551,285Z" fill="#877282" stroke="#877282" stroke-width="1.51"/><path d="M406,375L324,430L491,393Z" fill="#412f3d" stroke="#412f3d" stroke-width="1.51"/><path d="M535,-3L480,26L541,49Z" fill="#6e5669" stroke="#6e5669" stroke-width="1.51"/><path d="M480,26L498,94L541,49Z" fill="#80637a" stroke="#80637a" stroke-width="1.51"/><path d="M469,-21L480,26L535,-3Z" fill="#5e475a" stroke="#5e475a" stroke-width="1.51"/><path d="M498,94L438,187L521,115Z" fill="#a56497" stroke="#a56497" stroke-width="1.51"/><path d="M459,326L491,393L525,324Z" fill="#594755" stroke="#594755" stroke-width="1.51"/><path d="M488,255L459,326L525,324Z" fill="#756271" stroke="#756271" stroke-width="1.51"/><path d="M403,-105L469,-21L487,-104Z" fill="#3c2d39" stroke="#3c2d39" stroke-width="1.51"/><path d="M431,319L459,326L488,255Z" fill="#725f6e" stroke="#725f6e" stroke-width="1.51"/><path d="M432,15L390,26L498,94Z" fill="#6f566a" stroke="#6f566a" stroke-width="1.51"/><path d="M390,26L409,162L498,94Z" fill="#916488" stroke="#916488" stroke-width="1.51"/><path d="M409,162L438,187L498,94Z" fill="#a05a92" stroke="#a05a92" stroke-width="1.51"/><path d="M480,26L432,15L498,94Z" fill="#735a6e" stroke="#735a6e" stroke-width="1.51"/><path d="M390,26L391,156L409,162Z" fill="#945f89" stroke="#945f89" stroke-width="1.51"/><path d="M459,326L406,375L491,393Z" fill="#503d4c" stroke="#503d4c" stroke-width="1.51"/><path d="M469,-21L432,15L480,26Z" fill="#5c4658" stroke="#5c4658" stroke-width="1.51"/><path d="M438,187L367,257L488,255Z" fill="#977891" stroke="#977891" stroke-width="1.51"/><path d="M367,257L431,319L488,255Z" fill="#836e7e" stroke="#836e7e" stroke-width="1.51"/><path d="M431,319L406,375L459,326Z" fill="#52414f" stroke="#52414f" stroke-width="1.51"/><path d="M403,-105L432,15L469,-21Z" fill="#463342" stroke="#463342" stroke-width="1.51"/><path d="M403,-105L390,26L432,15Z" fill="#483444" stroke="#483444" stroke-width="1.51"/><path d="M390,26L351,153L391,156Z" fill="#905e86" stroke="#905e86" stroke-width="1.51"/><path d="M338,9L390,26L403,-105Z" fill="#43303f" stroke="#43303f" stroke-width="1.51"/><path d="M409,162L367,257L438,187Z" fill="#9a6d91" stroke="#9a6d91" stroke-width="1.51"/><path d="M305,76L351,153L390,26Z" fill="#7e5776" stroke="#7e5776" stroke-width="1.51"/><path d="M391,156L367,257L409,162Z" fill="#99648c" stroke="#99648c" stroke-width="1.51"/><path d="M336,306L406,375L431,319Z" fill="#4e3e4b" stroke="#4e3e4b" stroke-width="1.51"/><path d="M367,257L336,306L431,319Z" fill="#6c5967" stroke="#6c5967" stroke-width="1.51"/><path d="M60,383L-26,388L231,436Z" fill="#1f151c" stroke="#1f151c" stroke-width="1.51"/><path d="M100,-99L165,-80L328,-118Z" fill="#1f151d" stroke="#1f151d" stroke-width="1.51"/><path d="M351,153L309,193L367,257Z" fill="#916487" stroke="#916487" stroke-width="1.51"/><path d="M351,153L367,257L391,156Z" fill="#955f89" stroke="#955f89" stroke-width="1.51"/><path d="M328,-118L338,9L403,-105Z" fill="#30222d" stroke="#30222d" stroke-width="1.51"/><path d="M336,306L324,430L406,375Z" fill="#41303e" stroke="#41303e" stroke-width="1.51"/><path d="M328,-118L267,-68L338,9Z" fill="#2d1e2a" stroke="#2d1e2a" stroke-width="1.51"/><path d="M338,9L305,76L390,26Z" fill="#5d4658" stroke="#5d4658" stroke-width="1.51"/><path d="M264,344L324,430L336,306Z" fill="#3e2d3a" stroke="#3e2d3a" stroke-width="1.51"/><path d="M267,-68L263,-24L338,9Z" fill="#362533" stroke="#362533" stroke-width="1.51"/><path d="M291,267L336,306L367,257Z" fill="#756171" stroke="#756171" stroke-width="1.51"/><path d="M309,193L291,267L367,257Z" fill="#84687e" stroke="#84687e" stroke-width="1.51"/><path d="M291,267L301,295L336,306Z" fill="#665462" stroke="#665462" stroke-width="1.51"/><path d="M272,111L309,193L351,153Z" fill="#8b457d" stroke="#8b457d" stroke-width="1.51"/><path d="M305,76L272,111L351,153Z" fill="#87547c" stroke="#87547c" stroke-width="1.51"/><path d="M165,-80L267,-68L328,-118Z" fill="#241822" stroke="#241822" stroke-width="1.51"/><path d="M301,295L264,344L336,306Z" fill="#4e3f4b" stroke="#4e3f4b" stroke-width="1.51"/><path d="M263,59L305,76L338,9Z" fill="#5d4659" stroke="#5d4659" stroke-width="1.51"/><path d="M263,-24L263,59L338,9Z" fill="#4a3545" stroke="#4a3545" stroke-width="1.51"/><path d="M264,344L231,436L324,430Z" fill="#2f212c" stroke="#2f212c" stroke-width="1.51"/><path d="M235,192L291,267L309,193Z" fill="#876780" stroke="#876780" stroke-width="1.51"/><path d="M272,111L235,192L309,193Z" fill="#88437a" stroke="#88437a" stroke-width="1.51"/><path d="M263,59L272,111L305,76Z" fill="#724e6b" stroke="#724e6b" stroke-width="1.51"/><path d="M291,267L264,344L301,295Z" fill="#584854" stroke="#584854" stroke-width="1.51"/><path d="M184,403L60,383L231,436Z" fill="#241820" stroke="#241820" stroke-width="1.51"/><path d="M213,359L231,436L264,344Z" fill="#32232f" stroke="#32232f" stroke-width="1.51"/><path d="M235,192L203,213L291,267Z" fill="#80637a" stroke="#80637a" stroke-width="1.51"/><path d="M203,213L197,272L291,267Z" fill="#745f70" stroke="#745f70" stroke-width="1.51"/><path d="M197,272L264,344L291,267Z" fill="#5b4b57" stroke="#5b4b57" stroke-width="1.51"/><path d="M263,-24L199,33L263,59Z" fill="#493545" stroke="#493545" stroke-width="1.51"/><path d="M197,272L213,359L264,344Z" fill="#3e313b" stroke="#3e313b" stroke-width="1.51"/><path d="M263,59L208,97L272,111Z" fill="#744e6c" stroke="#744e6c" stroke-width="1.51"/><path d="M208,97L235,192L272,111Z" fill="#814775" stroke="#814775" stroke-width="1.51"/><path d="M188,17L199,33L263,-24Z" fill="#3f2d3c" stroke="#3f2d3c" stroke-width="1.51"/><path d="M165,-80L263,-24L267,-68Z" fill="#261a23" stroke="#261a23" stroke-width="1.51"/><path d="M165,-80L188,17L263,-24Z" fill="#2d1f2b" stroke="#2d1f2b" stroke-width="1.51"/><path d="M199,33L208,97L263,59Z" fill="#5f4459" stroke="#5f4459" stroke-width="1.51"/><path d="M143,97L138,208L203,213Z" fill="#7b406f" stroke="#7b406f" stroke-width="1.51"/><path d="M143,97L203,213L208,97Z" fill="#7b426f" stroke="#7b426f" stroke-width="1.51"/><path d="M213,359L184,403L231,436Z" fill="#2a1d27" stroke="#2a1d27" stroke-width="1.51"/><path d="M208,97L203,213L235,192Z" fill="#814074" stroke="#814074" stroke-width="1.51"/><path d="M88,374L60,383L184,403Z" fill="#251a22" stroke="#251a22" stroke-width="1.51"/><path d="M142,248L197,272L203,213Z" fill="#725c6d" stroke="#725c6d" stroke-width="1.51"/><path d="M199,33L143,97L208,97Z" fill="#63455d" stroke="#63455d" stroke-width="1.51"/><path d="M197,272L107,308L213,359Z" fill="#423640" stroke="#423640" stroke-width="1.51"/><path d="M107,308L184,403L213,359Z" fill="#30242e" stroke="#30242e" stroke-width="1.51"/><path d="M165,-80L112,2L188,17Z" fill="#2c1e29" stroke="#2c1e29" stroke-width="1.51"/><path d="M132,32L143,97L199,33Z" fill="#523d4d" stroke="#523d4d" stroke-width="1.51"/><path d="M107,308L88,374L184,403Z" fill="#2c2029" stroke="#2c2029" stroke-width="1.51"/><path d="M138,208L142,248L203,213Z" fill="#775d72" stroke="#775d72" stroke-width="1.51"/><path d="M142,248L107,308L197,272Z" fill="#60525d" stroke="#60525d" stroke-width="1.51"/><path d="M188,17L132,32L199,33Z" fill="#443241" stroke="#443241" stroke-width="1.51"/><path d="M112,2L132,32L188,17Z" fill="#3c2c39" stroke="#3c2c39" stroke-width="1.51"/><path d="M100,-99L112,2L165,-80Z" fill="#1b1219" stroke="#1b1219" stroke-width="1.51"/><path d="M19,104L1,165L64,227Z" fill="#733466" stroke="#733466" stroke-width="1.51"/><path d="M57,-61L68,-16L100,-99Z" fill="#190f17" stroke="#190f17" stroke-width="1.51"/><path d="M100,-99L68,-16L112,2Z" fill="#20151e" stroke="#20151e" stroke-width="1.51"/><path d="M19,104L64,227L138,208Z" fill="#733f68" stroke="#733f68" stroke-width="1.51"/><path d="M138,208L64,227L142,248Z" fill="#70586b" stroke="#70586b" stroke-width="1.51"/><path d="M64,227L107,308L142,248Z" fill="#63535f" stroke="#63535f" stroke-width="1.51"/><path d="M132,32L26,82L143,97Z" fill="#563d51" stroke="#563d51" stroke-width="1.51"/><path d="M26,82L19,104L143,97Z" fill="#65435f" stroke="#65435f" stroke-width="1.51"/><path d="M19,104L138,208L143,97Z" fill="#723b66" stroke="#723b66" stroke-width="1.51"/><path d="M112,2L26,82L132,32Z" fill="#42323f" stroke="#42323f" stroke-width="1.51"/><path d="M64,227L39,247L107,308Z" fill="#61525e" stroke="#61525e" stroke-width="1.51"/><path d="M41,359L88,374L107,308Z" fill="#2b2129" stroke="#2b2129" stroke-width="1.51"/><path d="M68,-16L26,82L112,2Z" fill="#3a2a37" stroke="#3a2a37" stroke-width="1.51"/><path d="M39,247L41,359L107,308Z" fill="#41363f" stroke="#41363f" stroke-width="1.51"/><path d="M39,247L9,263L41,359Z" fill="#4d424b" stroke="#4d424b" stroke-width="1.51"/><path d="M-1,-112L57,-61L100,-99Z" fill="#160b14" stroke="#160b14" stroke-width="1.51"/><path d="M-22,30L26,82L68,-16Z" fill="#3e2e3b" stroke="#3e2e3b" stroke-width="1.51"/><path d="M41,359L60,383L88,374Z" fill="#261b24" stroke="#261b24" stroke-width="1.51"/><path d="M9,263L6,351L41,359Z" fill="#30282e" stroke="#30282e" stroke-width="1.51"/><path d="M1,165L39,247L64,227Z" fill="#71566b" stroke="#71566b" stroke-width="1.51"/><path d="M57,-61L-41,-9L68,-16Z" fill="#221720" stroke="#221720" stroke-width="1.51"/><path d="M-41,-9L-22,30L68,-16Z" fill="#2e212c" stroke="#2e212c" stroke-width="1.51"/><path d="M41,359L-26,388L60,383Z" fill="#251a23" stroke="#251a23" stroke-width="1.51"/><path d="M-11,142L1,165L19,104Z" fill="#703a64" stroke="#703a64" stroke-width="1.51"/><path d="M-1,-112L-41,-9L57,-61Z" fill="#170e15" stroke="#170e15" stroke-width="1.51"/><path d="M1,165L9,263L39,247Z" fill="#6e5668" stroke="#6e5668" stroke-width="1.51"/><path d="M6,351L-26,388L41,359Z" fill="#261c24" stroke="#261c24" stroke-width="1.51"/><path d="M-77,-38L-41,-9L-1,-112Z" fill="#190f17" stroke="#190f17" stroke-width="1.51"/><path d="M-92,317L6,351L9,263Z" fill="#3b3239" stroke="#3b3239" stroke-width="1.51"/><path d="M1,165L-65,227L9,263Z" fill="#70566b" stroke="#70566b" stroke-width="1.51"/><path d="M-22,30L19,104L26,82Z" fill="#563c50" stroke="#563c50" stroke-width="1.51"/><path d="M-81,95L-11,142L19,104Z" fill="#6c4263" stroke="#6c4263" stroke-width="1.51"/><path d="M-22,30L-81,95L19,104Z" fill="#583d53" stroke="#583d53" stroke-width="1.51"/><path d="M-65,227L-92,317L9,263Z" fill="#5d505a" stroke="#5d505a" stroke-width="1.51"/><path d="M-92,317L-26,388L6,351Z" fill="#281f26" stroke="#281f26" stroke-width="1.51"/><path d="M-67,33L-81,95L-22,30Z" fill="#483645" stroke="#483645" stroke-width="1.51"/><path d="M-11,142L-65,227L1,165Z" fill="#723e66" stroke="#723e66" stroke-width="1.51"/><path d="M-119,-59L-77,-38L-1,-112Z" fill="#150b13" stroke="#150b13" stroke-width="1.51"/><path d="M-81,95L-65,227L-11,142Z" fill="#713264" stroke="#713264" stroke-width="1.51"/><path d="M-92,317L-118,375L-26,388Z" fill="#261c25" stroke="#261c25" stroke-width="1.51"/><path d="M-41,-9L-67,33L-22,30Z" fill="#352733" stroke="#352733" stroke-width="1.51"/><path d="M-123,269L-92,317L-65,227Z" fill="#5c4f59" stroke="#5c4f59" stroke-width="1.51"/><path d="M-77,-38L-67,33L-41,-9Z" fill="#2a1d28" stroke="#2a1d28" stroke-width="1.51"/><path d="M-77,-38L-119,-59L-67,33Z" fill="#241821" stroke="#241821" stroke-width="1.51"/><path d="M-81,95L-123,269L-65,227Z" fill="#714a68" stroke="#714a68" stroke-width="1.51"/><path d="M-119,-59L-81,95L-67,33Z" fill="#382935" stroke="#382935" stroke-width="1.51"/><path d="M-119,-59L-123,269L-81,95Z" fill="#684461" stroke="#684461" stroke-width="1.51"/><path d="M-123,269L-118,375L-92,317Z" fill="#322930" stroke="#322930" stroke-width="1.51"/></svg>