<svg xmlns="http://www.w3.org/2000/svg" width="1920" height="1080"><path d="M318,-241L685,-214L1197,-213Z" fill="#5c285d" stroke="#5c285d" stroke-width="1.51"/><path d="M1064,1322L691,1331L1200,1323Z" fill="#7d397b" stroke="#7d397b" stroke-width="1.51"/><path d="M104,-244L318,-241L1950,-266Z" fill="#602561" stroke="#602561" stroke-width="1.51"/><path d="M1197,-213L1649,-232L1950,-266Z" fill="#6f4d6f" stroke="#6f4d6f" stroke-width="1.51"/><path d="M318,-241L1197,-213L1950,-266Z" fill="#752c75" stroke="#752c75" stroke-width="1.51"/><path d="M1689,1259L1364,1316L2053,1289Z" fill="#7d6b7d" stroke="#7d6b7d" stroke-width="1.51"/><path d="M1946,1251L1750,1248L2053,1289Z" fill="#5e525e" stroke="#5e525e" stroke-width="1.51"/><path d="M1750,1248L1689,1259L2053,1289Z" fill="#6c5d6c" stroke="#6c5d6c" stroke-width="1.51"/><path d="M2049,389L2052,497L2096,230Z" fill="#6e436e" stroke="#6e436e" stroke-width="1.51"/><path d="M1946,1251L2053,1289L2101,1092Z" fill="#584c58" stroke="#584c58" stroke-width="1.51"/><path d="M1982,1019L2101,1092L2124,947Z" fill="#7f6a7e" stroke="#7f6a7e" stroke-width="1.51"/><path d="M1981,98L2075,145L2130,-49Z" fill="#382b38" stroke="#382b38" stroke-width="1.51"/><path d="M1930,-49L1981,98L2130,-49Z" fill="#392d39" stroke="#392d39" stroke-width="1.51"/><path d="M2075,145L2096,230L2130,-49Z" fill="#3d2d3c" stroke="#3d2d3c" stroke-width="1.51"/><path d="M2096,230L2052,497L2130,855Z" fill="#7b397a" stroke="#7b397a" stroke-width="1.51"/><path d="M2052,497L2072,729L2130,855Z" fill="#884887" stroke="#884887" stroke-width="1.51"/><path d="M1935,872L2124,947L2130,855Z" fill="#886088" stroke="#886088" stroke-width="1.51"/><path d="M2130,-49L2096,230L2130,855Z" fill="#643c63" stroke="#643c63" stroke-width="1.51"/><path d="M1930,-49L2130,-49L2135,-175Z" fill="#312231" stroke="#312231" stroke-width="1.51"/><path d="M1950,-266L1930,-49L2135,-175Z" fill="#382839" stroke="#382839" stroke-width="1.51"/><path d="M2130,-49L2130,855L2135,-175Z" fill="#513a51" stroke="#513a51" stroke-width="1.51"/><path d="M2052,497L1950,742L2072,729Z" fill="#8f4e8e" stroke="#8f4e8e" stroke-width="1.51"/><path d="M1971,257L2049,389L2096,230Z" fill="#694768" stroke="#694768" stroke-width="1.51"/><path d="M1925,1111L1946,1251L2101,1092Z" fill="#6d5e6d" stroke="#6d5e6d" stroke-width="1.51"/><path d="M2072,729L1935,872L2130,855Z" fill="#8d5b8d" stroke="#8d5b8d" stroke-width="1.51"/><path d="M1935,872L1982,1019L2124,947Z" fill="#8d6c8c" stroke="#8d6c8c" stroke-width="1.51"/><path d="M1881,503L1950,742L2052,497Z" fill="#954f93" stroke="#954f93" stroke-width="1.51"/><path d="M1950,742L1935,872L2072,729Z" fill="#976097" stroke="#976097" stroke-width="1.51"/><path d="M2075,145L1971,257L2096,230Z" fill="#5e455e" stroke="#5e455e" stroke-width="1.51"/><path d="M1982,1019L1925,1111L2101,1092Z" fill="#7e6d7e" stroke="#7e6d7e" stroke-width="1.51"/><path d="M1881,503L1829,581L1950,742Z" fill="#a35da1" stroke="#a35da1" stroke-width="1.51"/><path d="M2049,389L1938,426L2052,497Z" fill="#7e487d" stroke="#7e487d" stroke-width="1.51"/><path d="M1981,98L1971,257L2075,145Z" fill="#584357" stroke="#584357" stroke-width="1.51"/><path d="M1971,257L1938,426L2049,389Z" fill="#794e78" stroke="#794e78" stroke-width="1.51"/><path d="M1938,426L1881,503L2052,497Z" fill="#8b4f8a" stroke="#8b4f8a" stroke-width="1.51"/><path d="M1649,-232L1788,-200L1950,-266Z" fill="#584158" stroke="#584158" stroke-width="1.51"/><path d="M1788,-200L1930,-49L1950,-266Z" fill="#493649" stroke="#493649" stroke-width="1.51"/><path d="M1777,376L1938,426L1971,257Z" fill="#865b85" stroke="#865b85" stroke-width="1.51"/><path d="M1768,287L1777,376L1971,257Z" fill="#8b638a" stroke="#8b638a" stroke-width="1.51"/><path d="M1930,-49L1793,-16L1981,98Z" fill="#483b48" stroke="#483b48" stroke-width="1.51"/><path d="M1768,287L1971,257L1981,98Z" fill="#735873" stroke="#735873" stroke-width="1.51"/><path d="M1741,60L1768,287L1981,98Z" fill="#6f586f" stroke="#6f586f" stroke-width="1.51"/><path d="M1790,1028L1925,1111L1982,1019Z" fill="#938093" stroke="#938093" stroke-width="1.51"/><path d="M1935,872L1835,885L1982,1019Z" fill="#9d789d" stroke="#9d789d" stroke-width="1.51"/><path d="M1835,885L1790,1028L1982,1019Z" fill="#a284a1" stroke="#a284a1" stroke-width="1.51"/><path d="M1793,-16L1741,60L1981,98Z" fill="#544553" stroke="#544553" stroke-width="1.51"/><path d="M1197,-213L1298,-185L1649,-232Z" fill="#763e76" stroke="#763e76" stroke-width="1.51"/><path d="M1756,1118L1750,1248L1925,1111Z" fill="#887688" stroke="#887688" stroke-width="1.51"/><path d="M1925,1111L1750,1248L1946,1251Z" fill="#726472" stroke="#726472" stroke-width="1.51"/><path d="M1835,885L1935,872L1950,742Z" fill="#a371a3" stroke="#a371a3" stroke-width="1.51"/><path d="M1759,713L1835,885L1950,742Z" fill="#af74ae" stroke="#af74ae" stroke-width="1.51"/><path d="M1829,581L1759,713L1950,742Z" fill="#ae69ad" stroke="#ae69ad" stroke-width="1.51"/><path d="M1788,-200L1793,-16L1930,-49Z" fill="#513f51" stroke="#513f51" stroke-width="1.51"/><path d="M1777,376L1881,503L1938,426Z" fill="#965e95" stroke="#965e95" stroke-width="1.51"/><path d="M1790,1028L1756,1118L1925,1111Z" fill="#988498" stroke="#988498" stroke-width="1.51"/><path d="M1777,376L1829,581L1881,503Z" fill="#a361a1" stroke="#a361a1" stroke-width="1.51"/><path d="M1493,1246L1364,1316L1689,1259Z" fill="#8c688c" stroke="#8c688c" stroke-width="1.51"/><path d="M1741,60L1644,260L1768,287Z" fill="#917191" stroke="#917191" stroke-width="1.51"/><path d="M1777,376L1648,560L1829,581Z" fill="#b36cb1" stroke="#b36cb1" stroke-width="1.51"/><path d="M1759,713L1618,787L1835,885Z" fill="#c386c2" stroke="#c386c2" stroke-width="1.51"/><path d="M1655,1043L1790,1028L1835,885Z" fill="#b595b5" stroke="#b595b5" stroke-width="1.51"/><path d="M1618,787L1655,1043L1835,885Z" fill="#c697c6" stroke="#c697c6" stroke-width="1.51"/><path d="M1788,-200L1618,-34L1793,-16Z" fill="#624d62" stroke="#624d62" stroke-width="1.51"/><path d="M1648,560L1759,713L1829,581Z" fill="#be73bc" stroke="#be73bc" stroke-width="1.51"/><path d="M1298,-185L1509,-171L1649,-232Z" fill="#734674" stroke="#734674" stroke-width="1.51"/><path d="M1666,1169L1750,1248L1756,1118Z" fill="#927f92" stroke="#927f92" stroke-width="1.51"/><path d="M1648,560L1644,705L1759,713Z" fill="#cc80ca" stroke="#cc80ca" stroke-width="1.51"/><path d="M1579,402L1648,560L1777,376Z" fill="#b977b8" stroke="#b977b8" stroke-width="1.51"/><path d="M1649,-232L1618,-34L1788,-200Z" fill="#6a526a" stroke="#6a526a" stroke-width="1.51"/><path d="M1655,1043L1756,1118L1790,1028Z" fill="#ae97ae" stroke="#ae97ae" stroke-width="1.51"/><path d="M1618,-34L1741,60L1793,-16Z" fill="#665366" stroke="#665366" stroke-width="1.51"/><path d="M1599,69L1644,260L1741,60Z" fill="#856985" stroke="#856985" stroke-width="1.51"/><path d="M1644,705L1618,787L1759,713Z" fill="#d088ce" stroke="#d088ce" stroke-width="1.51"/><path d="M1768,287L1644,260L1777,376Z" fill="#9e739e" stroke="#9e739e" stroke-width="1.51"/><path d="M1644,260L1579,402L1777,376Z" fill="#ad79ac" stroke="#ad79ac" stroke-width="1.51"/><path d="M1666,1169L1689,1259L1750,1248Z" fill="#8b788b" stroke="#8b788b" stroke-width="1.51"/><path d="M1655,1043L1666,1169L1756,1118Z" fill="#a993a9" stroke="#a993a9" stroke-width="1.51"/><path d="M1618,-34L1599,69L1741,60Z" fill="#6e596e" stroke="#6e596e" stroke-width="1.51"/><path d="M1509,-171L1618,-34L1649,-232Z" fill="#6e4e6e" stroke="#6e4e6e" stroke-width="1.51"/><path d="M1618,787L1523,798L1655,1043Z" fill="#d092d0" stroke="#d092d0" stroke-width="1.51"/><path d="M1523,798L1479,1036L1655,1043Z" fill="#cd97cc" stroke="#cd97cc" stroke-width="1.51"/><path d="M1666,1169L1516,1176L1689,1259Z" fill="#977d97" stroke="#977d97" stroke-width="1.51"/><path d="M1516,1176L1493,1246L1689,1259Z" fill="#947594" stroke="#947594" stroke-width="1.51"/><path d="M1599,69L1505,292L1644,260Z" fill="#9d729d" stroke="#9d729d" stroke-width="1.51"/><path d="M1505,292L1579,402L1644,260Z" fill="#ad73ad" stroke="#ad73ad" stroke-width="1.51"/><path d="M1484,546L1644,705L1648,560Z" fill="#cd74cb" stroke="#cd74cb" stroke-width="1.51"/><path d="M1579,402L1484,546L1648,560Z" fill="#c56ec3" stroke="#c56ec3" stroke-width="1.51"/><path d="M1655,1043L1516,1176L1666,1169Z" fill="#aa8daa" stroke="#aa8daa" stroke-width="1.51"/><path d="M1479,1036L1516,1176L1655,1043Z" fill="#ba93b9" stroke="#ba93b9" stroke-width="1.51"/><path d="M1484,546L1428,741L1644,705Z" fill="#d474d3" stroke="#d474d3" stroke-width="1.51"/><path d="M1428,741L1523,798L1644,705Z" fill="#d57ed5" stroke="#d57ed5" stroke-width="1.51"/><path d="M1523,798L1618,787L1644,705Z" fill="#d285d2" stroke="#d285d2" stroke-width="1.51"/><path d="M1387,195L1505,292L1599,69Z" fill="#9c689b" stroke="#9c689b" stroke-width="1.51"/><path d="M1445,41L1387,195L1599,69Z" fill="#865885" stroke="#865885" stroke-width="1.51"/><path d="M1467,-65L1445,41L1599,69Z" fill="#744f74" stroke="#744f74" stroke-width="1.51"/><path d="M1467,-65L1599,69L1618,-34Z" fill="#725172" stroke="#725172" stroke-width="1.51"/><path d="M1509,-171L1467,-65L1618,-34Z" fill="#724c72" stroke="#724c72" stroke-width="1.51"/><path d="M1466,401L1484,546L1579,402Z" fill="#c16cc0" stroke="#c16cc0" stroke-width="1.51"/><path d="M140,1279L-160,1297L442,1322Z" fill="#322532" stroke="#322532" stroke-width="1.51"/><path d="M1505,292L1466,401L1579,402Z" fill="#b66fb5" stroke="#b66fb5" stroke-width="1.51"/><path d="M1365,102L1387,195L1445,41Z" fill="#8a548a" stroke="#8a548a" stroke-width="1.51"/><path d="M1348,694L1428,741L1484,546Z" fill="#d76cd7" stroke="#d76cd7" stroke-width="1.51"/><path d="M1479,1036L1349,1135L1516,1176Z" fill="#b685b6" stroke="#b685b6" stroke-width="1.51"/><path d="M1428,741L1290,832L1523,798Z" fill="#d97bd9" stroke="#d97bd9" stroke-width="1.51"/><path d="M1290,832L1332,998L1523,798Z" fill="#d882d8" stroke="#d882d8" stroke-width="1.51"/><path d="M1332,998L1479,1036L1523,798Z" fill="#d38ed3" stroke="#d38ed3" stroke-width="1.51"/><path d="M1466,401L1351,502L1484,546Z" fill="#c863c7" stroke="#c863c7" stroke-width="1.51"/><path d="M1349,1135L1493,1246L1516,1176Z" fill="#a477a3" stroke="#a477a3" stroke-width="1.51"/><path d="M1362,342L1466,401L1505,292Z" fill="#b76ab6" stroke="#b76ab6" stroke-width="1.51"/><path d="M1298,-185L1467,-65L1509,-171Z" fill="#754375" stroke="#754375" stroke-width="1.51"/><path d="M685,-214L832,-163L1197,-213Z" fill="#682269" stroke="#682269" stroke-width="1.51"/><path d="M1387,195L1362,342L1505,292Z" fill="#ae67ae" stroke="#ae67ae" stroke-width="1.51"/><path d="M1351,502L1348,694L1484,546Z" fill="#d261d2" stroke="#d261d2" stroke-width="1.51"/><path d="M1349,1135L1364,1316L1493,1246Z" fill="#996999" stroke="#996999" stroke-width="1.51"/><path d="M1298,-185L1288,-105L1467,-65Z" fill="#753e76" stroke="#753e76" stroke-width="1.51"/><path d="M1332,998L1349,1135L1479,1036Z" fill="#c88ec7" stroke="#c88ec7" stroke-width="1.51"/><path d="M832,-163L1056,-161L1197,-213Z" fill="#6f2470" stroke="#6f2470" stroke-width="1.51"/><path d="M1362,342L1351,502L1466,401Z" fill="#c063c0" stroke="#c063c0" stroke-width="1.51"/><path d="M1288,-105L1445,41L1467,-65Z" fill="#774577" stroke="#774577" stroke-width="1.51"/><path d="M1288,-105L1365,102L1445,41Z" fill="#784677" stroke="#784677" stroke-width="1.51"/><path d="M1348,694L1290,832L1428,741Z" fill="#da71da" stroke="#da71da" stroke-width="1.51"/><path d="M1158,527L1147,651L1348,694Z" fill="#d654d5" stroke="#d654d5" stroke-width="1.51"/><path d="M1158,527L1348,694L1351,502Z" fill="#d256d2" stroke="#d256d2" stroke-width="1.51"/><path d="M1227,391L1351,502L1362,342Z" fill="#c05dc0" stroke="#c05dc0" stroke-width="1.51"/><path d="M1349,1135L1200,1323L1364,1316Z" fill="#955d94" stroke="#955d94" stroke-width="1.51"/><path d="M1288,-105L1241,108L1365,102Z" fill="#794179" stroke="#794179" stroke-width="1.51"/><path d="M1193,292L1362,342L1387,195Z" fill="#af5faf" stroke="#af5faf" stroke-width="1.51"/><path d="M1241,108L1193,292L1387,195Z" fill="#a35aa3" stroke="#a35aa3" stroke-width="1.51"/><path d="M1365,102L1241,108L1387,195Z" fill="#915390" stroke="#915390" stroke-width="1.51"/><path d="M1332,998L1207,1020L1349,1135Z" fill="#ca89c9" stroke="#ca89c9" stroke-width="1.51"/><path d="M1130,1170L1200,1323L1349,1135Z" fill="#a1619f" stroke="#a1619f" stroke-width="1.51"/><path d="M1193,292L1227,391L1362,342Z" fill="#b85ab7" stroke="#b85ab7" stroke-width="1.51"/><path d="M1178,-95L1241,108L1288,-105Z" fill="#783978" stroke="#783978" stroke-width="1.51"/><path d="M1290,832L1207,1020L1332,998Z" fill="#d481d3" stroke="#d481d3" stroke-width="1.51"/><path d="M1147,651L1290,832L1348,694Z" fill="#db64db" stroke="#db64db" stroke-width="1.51"/><path d="M1227,391L1158,527L1351,502Z" fill="#c852c7" stroke="#c852c7" stroke-width="1.51"/><path d="M1207,1020L1130,1170L1349,1135Z" fill="#bb77ba" stroke="#bb77ba" stroke-width="1.51"/><path d="M1135,881L1207,1020L1290,832Z" fill="#d878d7" stroke="#d878d7" stroke-width="1.51"/><path d="M1197,-213L1178,-95L1288,-105Z" fill="#763376" stroke="#763376" stroke-width="1.51"/><path d="M1147,651L1135,881L1290,832Z" fill="#da66da" stroke="#da66da" stroke-width="1.51"/><path d="M1197,-213L1288,-105L1298,-185Z" fill="#763677" stroke="#763677" stroke-width="1.51"/><path d="M1049,824L1135,881L1147,651Z" fill="#d660d6" stroke="#d660d6" stroke-width="1.51"/><path d="M1178,-95L1031,142L1241,108Z" fill="#793879" stroke="#793879" stroke-width="1.51"/><path d="M1031,142L1075,225L1241,108Z" fill="#954894" stroke="#954894" stroke-width="1.51"/><path d="M1075,225L1193,292L1241,108Z" fill="#a553a5" stroke="#a553a5" stroke-width="1.51"/><path d="M1193,292L983,413L1227,391Z" fill="#b850b8" stroke="#b850b8" stroke-width="1.51"/><path d="M983,413L1158,527L1227,391Z" fill="#c14ac1" stroke="#c14ac1" stroke-width="1.51"/><path d="M1090,1179L1064,1322L1130,1170Z" fill="#995597" stroke="#995597" stroke-width="1.51"/><path d="M988,-113L1031,142L1178,-95Z" fill="#722e72" stroke="#722e72" stroke-width="1.51"/><path d="M1056,-161L1178,-95L1197,-213Z" fill="#742c74" stroke="#742c74" stroke-width="1.51"/><path d="M1130,1170L1064,1322L1200,1323Z" fill="#8f4e8e" stroke="#8f4e8e" stroke-width="1.51"/><path d="M1135,881L1058,1010L1207,1020Z" fill="#d179cf" stroke="#d179cf" stroke-width="1.51"/><path d="M1058,1010L1130,1170L1207,1020Z" fill="#c479c2" stroke="#c479c2" stroke-width="1.51"/><path d="M1075,225L983,413L1193,292Z" fill="#af4dae" stroke="#af4dae" stroke-width="1.51"/><path d="M1018,670L1049,824L1147,651Z" fill="#d552d5" stroke="#d552d5" stroke-width="1.51"/><path d="M1058,1010L1090,1179L1130,1170Z" fill="#b46bb2" stroke="#b46bb2" stroke-width="1.51"/><path d="M983,413L1007,546L1158,527Z" fill="#c33fc3" stroke="#c33fc3" stroke-width="1.51"/><path d="M1056,-161L988,-113L1178,-95Z" fill="#712971" stroke="#712971" stroke-width="1.51"/><path d="M902,1258L691,1331L1064,1322Z" fill="#7b3e7a" stroke="#7b3e7a" stroke-width="1.51"/><path d="M1007,546L1018,670L1147,651Z" fill="#cf46ce" stroke="#cf46ce" stroke-width="1.51"/><path d="M1007,546L1147,651L1158,527Z" fill="#ce44cd" stroke="#ce44cd" stroke-width="1.51"/><path d="M1049,824L1058,1010L1135,881Z" fill="#d26ed2" stroke="#d26ed2" stroke-width="1.51"/><path d="M988,-113L829,86L1031,142Z" fill="#6e2a6e" stroke="#6e2a6e" stroke-width="1.51"/><path d="M1049,824L920,856L1058,1010Z" fill="#cf68cf" stroke="#cf68cf" stroke-width="1.51"/><path d="M923,185L983,413L1075,225Z" fill="#a647a5" stroke="#a647a5" stroke-width="1.51"/><path d="M1058,1010L914,1158L1090,1179Z" fill="#b267b0" stroke="#b267b0" stroke-width="1.51"/><path d="M902,1258L1064,1322L1090,1179Z" fill="#8f4a8e" stroke="#8f4a8e" stroke-width="1.51"/><path d="M914,1158L902,1258L1090,1179Z" fill="#9a5398" stroke="#9a5398" stroke-width="1.51"/><path d="M832,-163L988,-113L1056,-161Z" fill="#6c206c" stroke="#6c206c" stroke-width="1.51"/><path d="M1031,142L923,185L1075,225Z" fill="#974597" stroke="#974597" stroke-width="1.51"/><path d="M851,-91L829,86L988,-113Z" fill="#692969" stroke="#692969" stroke-width="1.51"/><path d="M1018,670L920,856L1049,824Z" fill="#d157d1" stroke="#d157d1" stroke-width="1.51"/><path d="M920,856L854,1014L1058,1010Z" fill="#c86dc6" stroke="#c86dc6" stroke-width="1.51"/><path d="M854,1014L914,1158L1058,1010Z" fill="#bc6fba" stroke="#bc6fba" stroke-width="1.51"/><path d="M983,413L930,494L1007,546Z" fill="#be3abe" stroke="#be3abe" stroke-width="1.51"/><path d="M1007,546L934,645L1018,670Z" fill="#cb3fcb" stroke="#cb3fcb" stroke-width="1.51"/><path d="M934,645L920,856L1018,670Z" fill="#d04bcf" stroke="#d04bcf" stroke-width="1.51"/><path d="M829,86L923,185L1031,142Z" fill="#863b86" stroke="#863b86" stroke-width="1.51"/><path d="M923,185L881,441L983,413Z" fill="#ab44ab" stroke="#ab44ab" stroke-width="1.51"/><path d="M930,494L934,645L1007,546Z" fill="#c636c5" stroke="#c636c5" stroke-width="1.51"/><path d="M715,259L881,441L923,185Z" fill="#9d4a9d" stroke="#9d4a9d" stroke-width="1.51"/><path d="M761,688L920,856L934,645Z" fill="#c851c8" stroke="#c851c8" stroke-width="1.51"/><path d="M881,441L930,494L983,413Z" fill="#b73eb7" stroke="#b73eb7" stroke-width="1.51"/><path d="M832,-163L851,-91L988,-113Z" fill="#672467" stroke="#672467" stroke-width="1.51"/><path d="M768,-6L829,86L851,-91Z" fill="#642d64" stroke="#642d64" stroke-width="1.51"/><path d="M854,1014L762,1090L914,1158Z" fill="#ad6cab" stroke="#ad6cab" stroke-width="1.51"/><path d="M881,441L689,548L930,494Z" fill="#b540b4" stroke="#b540b4" stroke-width="1.51"/><path d="M689,548L761,688L930,494Z" fill="#b942b9" stroke="#b942b9" stroke-width="1.51"/><path d="M930,494L761,688L934,645Z" fill="#c242c2" stroke="#c242c2" stroke-width="1.51"/><path d="M761,688L687,851L920,856Z" fill="#c15ec1" stroke="#c15ec1" stroke-width="1.51"/><path d="M687,851L719,997L854,1014Z" fill="#b871b7" stroke="#b871b7" stroke-width="1.51"/><path d="M715,259L682,366L881,441Z" fill="#9e4c9e" stroke="#9e4c9e" stroke-width="1.51"/><path d="M687,851L854,1014L920,856Z" fill="#c16bc0" stroke="#c16bc0" stroke-width="1.51"/><path d="M829,86L715,259L923,185Z" fill="#884588" stroke="#884588" stroke-width="1.51"/><path d="M762,1090L902,1258L914,1158Z" fill="#985b97" stroke="#985b97" stroke-width="1.51"/><path d="M762,1090L691,1331L902,1258Z" fill="#845083" stroke="#845083" stroke-width="1.51"/><path d="M743,92L715,259L829,86Z" fill="#7c427b" stroke="#7c427b" stroke-width="1.51"/><path d="M682,366L689,548L881,441Z" fill="#aa47a9" stroke="#aa47a9" stroke-width="1.51"/><path d="M318,-241L592,-181L685,-214Z" fill="#4d294d" stroke="#4d294d" stroke-width="1.51"/><path d="M719,997L762,1090L854,1014Z" fill="#b579b4" stroke="#b579b4" stroke-width="1.51"/><path d="M832,-163L768,-6L851,-91Z" fill="#622962" stroke="#622962" stroke-width="1.51"/><path d="M768,-6L743,92L829,86Z" fill="#653364" stroke="#653364" stroke-width="1.51"/><path d="M621,-111L768,-6L832,-163Z" fill="#5d2c5d" stroke="#5d2c5d" stroke-width="1.51"/><path d="M685,-214L621,-111L832,-163Z" fill="#5a2a5b" stroke="#5a2a5b" stroke-width="1.51"/><path d="M564,139L715,259L743,92Z" fill="#794579" stroke="#794579" stroke-width="1.51"/><path d="M601,789L687,851L761,688Z" fill="#b85eb8" stroke="#b85eb8" stroke-width="1.51"/><path d="M640,635L601,789L761,688Z" fill="#b754b7" stroke="#b754b7" stroke-width="1.51"/><path d="M689,548L640,635L761,688Z" fill="#b54cb5" stroke="#b54cb5" stroke-width="1.51"/><path d="M543,1262L691,1331L762,1090Z" fill="#7a5179" stroke="#7a5179" stroke-width="1.51"/><path d="M549,1098L543,1262L762,1090Z" fill="#896188" stroke="#896188" stroke-width="1.51"/><path d="M621,-111L743,92L768,-6Z" fill="#5c305c" stroke="#5c305c" stroke-width="1.51"/><path d="M621,-111L564,139L743,92Z" fill="#583358" stroke="#583358" stroke-width="1.51"/><path d="M719,997L549,1098L762,1090Z" fill="#a574a4" stroke="#a574a4" stroke-width="1.51"/><path d="M682,366L577,493L689,548Z" fill="#a349a3" stroke="#a349a3" stroke-width="1.51"/><path d="M528,237L682,366L715,259Z" fill="#8c4e8c" stroke="#8c4e8c" stroke-width="1.51"/><path d="M564,139L528,237L715,259Z" fill="#7f4e7f" stroke="#7f4e7f" stroke-width="1.51"/><path d="M687,851L532,941L719,997Z" fill="#b070b0" stroke="#b070b0" stroke-width="1.51"/><path d="M532,941L549,1098L719,997Z" fill="#a778a6" stroke="#a778a6" stroke-width="1.51"/><path d="M528,237L549,394L682,366Z" fill="#8d4e8d" stroke="#8d4e8d" stroke-width="1.51"/><path d="M549,394L577,493L682,366Z" fill="#994c99" stroke="#994c99" stroke-width="1.51"/><path d="M592,-181L621,-111L685,-214Z" fill="#542a55" stroke="#542a55" stroke-width="1.51"/><path d="M601,789L532,941L687,851Z" fill="#b168b0" stroke="#b168b0" stroke-width="1.51"/><path d="M543,1262L442,1322L691,1331Z" fill="#604260" stroke="#604260" stroke-width="1.51"/><path d="M577,493L640,635L689,548Z" fill="#ab46ab" stroke="#ab46ab" stroke-width="1.51"/><path d="M465,108L564,139L621,-111Z" fill="#503350" stroke="#503350" stroke-width="1.51"/><path d="M318,-241L435,-156L592,-181Z" fill="#432644" stroke="#432644" stroke-width="1.51"/><path d="M245,1267L140,1279L442,1322Z" fill="#3a2d3a" stroke="#3a2d3a" stroke-width="1.51"/><path d="M431,-112L465,108L621,-111Z" fill="#4b2f4b" stroke="#4b2f4b" stroke-width="1.51"/><path d="M467,637L601,789L640,635Z" fill="#ae54ad" stroke="#ae54ad" stroke-width="1.51"/><path d="M577,493L467,637L640,635Z" fill="#a74aa6" stroke="#a74aa6" stroke-width="1.51"/><path d="M458,886L532,941L601,789Z" fill="#aa69a9" stroke="#aa69a9" stroke-width="1.51"/><path d="M592,-181L431,-112L621,-111Z" fill="#4e2b4d" stroke="#4e2b4d" stroke-width="1.51"/><path d="M450,506L467,637L577,493Z" fill="#9e469e" stroke="#9e469e" stroke-width="1.51"/><path d="M435,-156L431,-112L592,-181Z" fill="#492a49" stroke="#492a49" stroke-width="1.51"/><path d="M467,637L458,886L601,789Z" fill="#a95da9" stroke="#a95da9" stroke-width="1.51"/><path d="M532,941L417,1007L549,1098Z" fill="#9d779d" stroke="#9d779d" stroke-width="1.51"/><path d="M379,1170L543,1262L549,1098Z" fill="#775b77" stroke="#775b77" stroke-width="1.51"/><path d="M549,394L443,430L577,493Z" fill="#944a94" stroke="#944a94" stroke-width="1.51"/><path d="M443,430L450,506L577,493Z" fill="#964996" stroke="#964996" stroke-width="1.51"/><path d="M528,237L443,430L549,394Z" fill="#894d89" stroke="#894d89" stroke-width="1.51"/><path d="M442,186L528,237L564,139Z" fill="#714971" stroke="#714971" stroke-width="1.51"/><path d="M465,108L442,186L564,139Z" fill="#654265" stroke="#654265" stroke-width="1.51"/><path d="M315,286L443,430L528,237Z" fill="#794879" stroke="#794879" stroke-width="1.51"/><path d="M379,1170L442,1322L543,1262Z" fill="#614960" stroke="#614960" stroke-width="1.51"/><path d="M417,1007L379,1170L549,1098Z" fill="#866886" stroke="#866886" stroke-width="1.51"/><path d="M442,186L315,286L528,237Z" fill="#6f476e" stroke="#6f476e" stroke-width="1.51"/><path d="M272,690L458,886L467,637Z" fill="#975096" stroke="#975096" stroke-width="1.51"/><path d="M458,886L417,1007L532,941Z" fill="#9e6e9e" stroke="#9e6e9e" stroke-width="1.51"/><path d="M267,-84L339,136L431,-112Z" fill="#342134" stroke="#342134" stroke-width="1.51"/><path d="M272,690L252,803L458,886Z" fill="#894e89" stroke="#894e89" stroke-width="1.51"/><path d="M339,136L442,186L465,108Z" fill="#583a58" stroke="#583a58" stroke-width="1.51"/><path d="M431,-112L339,136L465,108Z" fill="#3f2a3f" stroke="#3f2a3f" stroke-width="1.51"/><path d="M450,506L312,521L467,637Z" fill="#903f8f" stroke="#903f8f" stroke-width="1.51"/><path d="M312,521L272,690L467,637Z" fill="#883e88" stroke="#883e88" stroke-width="1.51"/><path d="M-57,1267L-160,1297L140,1279Z" fill="#342434" stroke="#342434" stroke-width="1.51"/><path d="M252,803L417,1007L458,886Z" fill="#8f5f8f" stroke="#8f5f8f" stroke-width="1.51"/><path d="M379,1170L245,1267L442,1322Z" fill="#4f3d4f" stroke="#4f3d4f" stroke-width="1.51"/><path d="M443,430L312,521L450,506Z" fill="#884087" stroke="#884087" stroke-width="1.51"/><path d="M252,803L236,1033L417,1007Z" fill="#7e5b7e" stroke="#7e5b7e" stroke-width="1.51"/><path d="M339,136L315,286L442,186Z" fill="#5e3f5e" stroke="#5e3f5e" stroke-width="1.51"/><path d="M315,286L244,337L443,430Z" fill="#6c3d6b" stroke="#6c3d6b" stroke-width="1.51"/><path d="M244,337L312,521L443,430Z" fill="#753b74" stroke="#753b74" stroke-width="1.51"/><path d="M236,1033L379,1170L417,1007Z" fill="#776077" stroke="#776077" stroke-width="1.51"/><path d="M267,-84L431,-112L435,-156Z" fill="#372038" stroke="#372038" stroke-width="1.51"/><path d="M318,-241L267,-84L435,-156Z" fill="#311c31" stroke="#311c31" stroke-width="1.51"/><path d="M236,1033L248,1165L379,1170Z" fill="#614f60" stroke="#614f60" stroke-width="1.51"/><path d="M248,1165L245,1267L379,1170Z" fill="#4f3f4f" stroke="#4f3f4f" stroke-width="1.51"/><path d="M188,553L272,690L312,521Z" fill="#753175" stroke="#753175" stroke-width="1.51"/><path d="M244,337L188,553L312,521Z" fill="#693069" stroke="#693069" stroke-width="1.51"/><path d="M267,-84L124,-37L339,136Z" fill="#241824" stroke="#241824" stroke-width="1.51"/><path d="M124,-37L108,118L339,136Z" fill="#291b29" stroke="#291b29" stroke-width="1.51"/><path d="M108,231L315,286L339,136Z" fill="#4e344e" stroke="#4e344e" stroke-width="1.51"/><path d="M108,118L108,231L339,136Z" fill="#3e293e" stroke="#3e293e" stroke-width="1.51"/><path d="M96,968L236,1033L252,803Z" fill="#735173" stroke="#735173" stroke-width="1.51"/><path d="M90,866L96,968L252,803Z" fill="#764a76" stroke="#764a76" stroke-width="1.51"/><path d="M108,231L244,337L315,286Z" fill="#533253" stroke="#533253" stroke-width="1.51"/><path d="M104,-244L267,-84L318,-241Z" fill="#221122" stroke="#221122" stroke-width="1.51"/><path d="M93,430L188,553L244,337Z" fill="#642e64" stroke="#642e64" stroke-width="1.51"/><path d="M236,1033L128,1090L248,1165Z" fill="#5e4d5e" stroke="#5e4d5e" stroke-width="1.51"/><path d="M104,-244L124,-37L267,-84Z" fill="#211121" stroke="#211121" stroke-width="1.51"/><path d="M101,684L252,803L272,690Z" fill="#793b78" stroke="#793b78" stroke-width="1.51"/><path d="M188,553L101,684L272,690Z" fill="#753274" stroke="#753274" stroke-width="1.51"/><path d="M140,1279L245,1267L248,1165Z" fill="#3f323f" stroke="#3f323f" stroke-width="1.51"/><path d="M101,684L90,866L252,803Z" fill="#774077" stroke="#774077" stroke-width="1.51"/><path d="M128,1090L140,1279L248,1165Z" fill="#4b3c4b" stroke="#4b3c4b" stroke-width="1.51"/><path d="M108,231L93,430L244,337Z" fill="#573057" stroke="#573057" stroke-width="1.51"/><path d="M96,968L128,1090L236,1033Z" fill="#6d576d" stroke="#6d576d" stroke-width="1.51"/><path d="M-41,533L101,684L188,553Z" fill="#702a70" stroke="#702a70" stroke-width="1.51"/><path d="M93,430L-41,533L188,553Z" fill="#692669" stroke="#692669" stroke-width="1.51"/><path d="M-22,251L-60,391L93,430Z" fill="#592b59" stroke="#592b59" stroke-width="1.51"/><path d="M-16,804L90,866L101,684Z" fill="#773d77" stroke="#773d77" stroke-width="1.51"/><path d="M-187,-161L-44,-158L104,-244Z" fill="#200921" stroke="#200921" stroke-width="1.51"/><path d="M-22,251L93,430L108,231Z" fill="#532d53" stroke="#532d53" stroke-width="1.51"/><path d="M104,-244L-44,-158L124,-37Z" fill="#200d20" stroke="#200d20" stroke-width="1.51"/><path d="M-44,-158L-47,-88L124,-37Z" fill="#200d20" stroke="#200d20" stroke-width="1.51"/><path d="M11,71L108,118L124,-37Z" fill="#241624" stroke="#241624" stroke-width="1.51"/><path d="M128,1090L-30,1128L140,1279Z" fill="#4c3b4c" stroke="#4c3b4c" stroke-width="1.51"/><path d="M-30,1128L-57,1267L140,1279Z" fill="#3f2f3f" stroke="#3f2f3f" stroke-width="1.51"/><path d="M-41,533L-53,661L101,684Z" fill="#712a72" stroke="#712a72" stroke-width="1.51"/><path d="M96,968L-30,1128L128,1090Z" fill="#655064" stroke="#655064" stroke-width="1.51"/><path d="M108,118L-22,251L108,231Z" fill="#472c47" stroke="#472c47" stroke-width="1.51"/><path d="M-47,-88L11,71L124,-37Z" fill="#211121" stroke="#211121" stroke-width="1.51"/><path d="M90,866L-62,954L96,968Z" fill="#724b72" stroke="#724b72" stroke-width="1.51"/><path d="M-62,954L-30,1128L96,968Z" fill="#6c526c" stroke="#6c526c" stroke-width="1.51"/><path d="M-53,661L-16,804L101,684Z" fill="#763376" stroke="#763376" stroke-width="1.51"/><path d="M11,71L-22,251L108,118Z" fill="#39223a" stroke="#39223a" stroke-width="1.51"/><path d="M-60,391L-41,533L93,430Z" fill="#632763" stroke="#632763" stroke-width="1.51"/><path d="M-16,804L-62,954L90,866Z" fill="#744575" stroke="#744575" stroke-width="1.51"/><path d="M-62,954L-158,1103L-30,1128Z" fill="#644d65" stroke="#644d65" stroke-width="1.51"/><path d="M-135,865L-62,954L-16,804Z" fill="#744475" stroke="#744475" stroke-width="1.51"/><path d="M-47,-88L-137,-62L11,71Z" fill="#210f21" stroke="#210f21" stroke-width="1.51"/><path d="M-137,-62L-171,132L11,71Z" fill="#221223" stroke="#221223" stroke-width="1.51"/><path d="M-149,186L-22,251L11,71Z" fill="#3e243f" stroke="#3e243f" stroke-width="1.51"/><path d="M-171,132L-149,186L11,71Z" fill="#351e36" stroke="#351e36" stroke-width="1.51"/><path d="M-153,547L-53,661L-41,533Z" fill="#6f246f" stroke="#6f246f" stroke-width="1.51"/><path d="M-60,391L-153,547L-41,533Z" fill="#672367" stroke="#672367" stroke-width="1.51"/><path d="M-158,1103L-57,1267L-30,1128Z" fill="#4c394c" stroke="#4c394c" stroke-width="1.51"/><path d="M-165,353L-60,391L-22,251Z" fill="#562a57" stroke="#562a57" stroke-width="1.51"/><path d="M-53,661L-210,738L-16,804Z" fill="#763477" stroke="#763477" stroke-width="1.51"/><path d="M-210,738L-135,865L-16,804Z" fill="#763c76" stroke="#763c76" stroke-width="1.51"/><path d="M-149,186L-165,353L-22,251Z" fill="#4e2a4f" stroke="#4e2a4f" stroke-width="1.51"/><path d="M-183,976L-158,1103L-62,954Z" fill="#6d506d" stroke="#6d506d" stroke-width="1.51"/><path d="M-158,1103L-160,1297L-57,1267Z" fill="#402e40" stroke="#402e40" stroke-width="1.51"/><path d="M-137,-62L-47,-88L-44,-158Z" fill="#200b21" stroke="#200b21" stroke-width="1.51"/><path d="M-187,-161L-137,-62L-44,-158Z" fill="#210921" stroke="#210921" stroke-width="1.51"/><path d="M-165,353L-153,547L-60,391Z" fill="#612661" stroke="#612661" stroke-width="1.51"/><path d="M-153,547L-210,738L-53,661Z" fill="#732973" stroke="#732973" stroke-width="1.51"/><path d="M-135,865L-183,976L-62,954Z" fill="#724972" stroke="#724972" stroke-width="1.51"/><path d="M-187,-161L-171,132L-137,-62Z" fill="#210d21" stroke="#210d21" stroke-width="1.51"/><path d="M-210,738L-183,976L-135,865Z" fill="#754176" stroke="#754176" stroke-width="1.51"/><path d="M-171,132L-165,353L-149,186Z" fill="#4a294a" stroke="#4a294a" stroke-width="1.51"/><path d="M-183,976L-210,738L-160,1297Z" fill="#6d4e6e" stroke="#6d4e6e" stroke-width="1.51"/><path d="M-183,976L-160,1297L-158,1103Z" fill="#564055" stroke="#564055" stroke-width="1.51"/><path d="M-165,353L-210,738L-153,547Z" fill="#6d1e6d" stroke="#6d1e6d" stroke-width="1.51"/><path d="M-171,132L-210,738L-165,353Z" fill="#5f265f" stroke="#5f265f" stroke-width="1.51"/><path d="M-187,-161L-210,738L-171,132Z" fill="#4c284c" stroke="#4c284c" stroke-width="1.51"/></svg>